<svg version="1.0" xmlns="http://www.w3.org/2000/svg"
    width="300.000000pt" height="300.000000pt" viewBox="0 0 300.000000 300.000000"
    preserveAspectRatio="xMidYMid meet">
    <metadata> Created by potrace 1.10, written by Peter Selinger 2001-2011 </metadata>
    <g transform="translate(0.000000,300.000000) scale(0.100000,-0.100000)"
        fill="#000000" stroke="none">
        <path
            d="M1514 2827 c-40 -23 -83 -65 -103 -100 -58 -103 -69 -137 -82 -252
-12 -102 -8 -199 18 -458 l6 -57 -49 1 c-68 2 -131 -11 -147 -30 -7 -9 -21
-37 -31 -63 -10 -27 -23 -48 -30 -48 -6 0 -48 -36 -91 -81 -101 -102 -112
-113 -155 -141 -19 -13 -46 -44 -60 -70 -24 -46 -24 -47 -6 -67 11 -12 28 -21
38 -21 32 0 32 -28 0 -98 -37 -81 -51 -139 -52 -213 -1 -175 72 -318 203 -402
89 -57 101 -63 150 -78 26 -7 47 -17 47 -21 0 -4 -15 -14 -33 -21 -83 -35
-136 -124 -137 -229 0 -144 77 -245 220 -288 130 -39 238 -15 321 71 68 71 84
137 75 314 l-7 135 28 11 c175 71 269 141 333 247 21 34 87 71 127 72 22 0 63
43 63 66 0 7 14 29 31 49 37 41 34 66 -10 117 -25 29 -28 40 -26 94 1 33 7 69
13 80 14 26 -17 80 -53 94 -14 5 -25 13 -25 18 0 15 -102 126 -129 141 -14 8
-41 29 -59 47 -28 29 -49 38 -78 33 -3 -1 -18 10 -32 23 -15 14 -47 30 -72 37
-25 7 -53 20 -62 29 -10 8 -39 21 -65 27 -28 7 -49 19 -51 27 -2 9 36 68 83
133 130 179 169 278 166 425 -2 127 -29 231 -81 321 -68 116 -137 160 -196
126z m113 -59 c54 -55 98 -145 123 -250 49 -203 11 -337 -154 -556 -85 -111
-86 -113 -86 -171 0 -73 10 -151 20 -151 11 0 19 73 9 85 -5 5 -9 17 -9 27 0
26 90 26 96 1 4 -12 27 -24 67 -36 81 -24 91 -30 95 -55 3 -17 7 -20 25 -13
37 14 87 -15 87 -51 0 -13 7 -18 25 -18 25 0 75 -39 75 -58 0 -5 11 -15 25
-22 17 -9 25 -21 23 -34 -2 -13 5 -24 19 -31 13 -7 20 -15 16 -18 -3 -4 3 -7
14 -7 25 0 57 -35 50 -54 -4 -9 -18 -18 -32 -22 -25 -6 -25 -7 -7 -20 26 -18
33 -59 14 -85 -9 -13 -11 -24 -5 -28 6 -3 15 -16 22 -28 6 -13 18 -23 25 -23
7 0 18 -12 25 -26 15 -34 0 -54 -40 -54 -26 0 -28 -2 -18 -24 9 -18 8 -31 -2
-52 -12 -24 -22 -30 -54 -32 -22 -2 -43 -9 -47 -15 -5 -9 -12 -9 -25 -1 -14 9
-20 3 -42 -40 -51 -105 -190 -212 -324 -251 l-59 -17 8 -86 c13 -165 10 -242
-16 -300 -70 -161 -280 -202 -442 -86 -79 56 -124 178 -99 270 27 100 99 157
191 151 88 -5 141 -58 142 -140 2 -89 -60 -152 -142 -145 -25 3 -54 8 -65 13
-20 9 -20 9 -1 -20 24 -38 41 -51 91 -75 71 -34 141 -23 192 32 40 43 45 73
38 230 l-7 146 -82 6 c-106 7 -161 14 -210 27 -64 17 -186 76 -192 93 -3 9
-12 16 -19 16 -20 0 -91 83 -120 139 -14 28 -32 87 -39 131 -25 140 0 237 97
383 10 16 17 31 14 33 -2 2 -28 5 -58 7 -39 1 -55 6 -57 18 -4 20 54 99 73 99
8 0 63 50 123 110 72 72 116 110 130 110 12 0 22 -6 22 -13 0 -14 39 -41 48
-33 3 3 0 6 -6 6 -20 0 -44 58 -32 79 6 13 7 22 0 26 -12 7 7 52 26 59 7 3 18
-2 25 -10 10 -12 14 -12 26 6 14 20 67 28 77 11 3 -5 17 -11 31 -13 28 -6 61
22 45 38 -14 14 -40 279 -40 407 0 182 46 324 132 407 56 55 90 54 145 -2z
m-194 -2178 c14 -13 21 -234 8 -272 -22 -68 -91 -101 -168 -81 -30 7 -31 43
-3 43 23 0 37 10 81 54 52 53 48 169 -7 233 -13 16 -24 31 -24 34 0 8 103 -1
113 -11z" />
        <path
            d="M1524 2771 c-53 -32 -102 -115 -129 -222 -20 -77 -22 -240 -6 -414
16 -162 18 -170 37 -154 39 32 45 63 33 171 -12 110 -7 269 11 329 13 47 52
104 70 104 32 0 55 -66 58 -170 5 -121 -14 -209 -63 -310 -56 -113 -124 -192
-305 -359 -93 -86 -174 -165 -180 -176 -8 -16 -1 -23 55 -54 36 -20 69 -36 73
-36 4 0 59 71 122 159 l115 158 7 -46 c3 -25 7 -67 7 -93 1 -47 2 -48 32 -48
l32 0 -7 123 -7 123 63 80 c144 182 188 275 196 411 6 100 -16 203 -62 299
-30 61 -95 144 -114 144 -4 0 -21 -9 -38 -19z m66 -43 c33 -35 66 -96 94 -174
43 -118 36 -276 -16 -384 -23 -46 -81 -135 -123 -185 -68 -80 -85 -115 -86
-170 0 -27 -3 -43 -6 -35 -7 17 -23 30 -39 30 -18 0 -49 -32 -105 -110 -99
-137 -124 -169 -137 -174 -19 -8 -72 21 -72 39 0 17 4 20 194 199 253 237 332
390 330 636 -1 90 -5 124 -19 150 -35 68 -67 76 -111 28 -29 -31 -74 -148 -74
-191 0 -9 -4 -17 -10 -17 -5 0 -10 14 -10 31 0 21 4 28 13 23 9 -6 9 -5 0 8
-7 8 -10 17 -7 21 3 3 8 27 11 54 2 26 9 52 14 58 5 5 9 18 9 28 0 46 80 157
113 157 9 0 26 -10 37 -22z m-173 -414 c3 -25 1 -34 -6 -30 -6 4 -11 23 -11
43 0 45 10 37 17 -13z" />
        <path
            d="M1525 2536 c-31 -47 -45 -124 -44 -246 0 -63 4 -137 8 -165 l7 -50
31 81 c50 126 61 292 26 383 l-10 25 -18 -28z m24 -153 c1 -54 -18 -143 -30
-143 -6 0 -8 4 -4 9 3 5 1 12 -5 16 -6 3 -7 20 -4 38 4 18 6 48 5 68 -1 20 4
49 10 65 10 27 12 27 19 9 5 -11 9 -39 9 -62z" />
        <path d="M1300 1894 c17 -15 34 -24 37 -20 8 7 -38 45 -55 46 -8 0 1 -12 18
-26z" />
        <path d="M1190 1894 c0 -15 67 -90 74 -83 4 3 -12 26 -33 50 -22 24 -40 39
-41 33z" />
        <path
            d="M1181 1818 c-1 -29 30 -55 51 -42 7 5 4 10 -11 15 -12 5 -26 19 -31
31 -8 22 -9 22 -9 -4z" />
        <path
            d="M1093 1735 c2 -5 20 -10 40 -10 20 0 35 5 34 10 -2 6 -20 10 -40 10
-21 0 -36 -4 -34 -10z" />
        <path
            d="M1568 1705 c-1 -25 -2 -55 -2 -67 -1 -12 4 -23 9 -25 6 -1 11 26 13
67 1 42 -2 70 -8 70 -5 0 -11 -20 -12 -45z" />
        <path
            d="M1345 1657 c-27 -38 -57 -79 -65 -90 -13 -18 -11 -18 30 3 25 13 56
26 69 30 23 6 25 10 22 66 -1 32 -3 60 -4 60 -1 1 -24 -30 -52 -69z" />
        <path
            d="M1032 1681 c2 -13 11 -29 21 -35 23 -15 51 3 54 35 2 24 2 24 -5 -1
-5 -15 -15 -25 -27 -25 -11 0 -25 11 -33 25 l-13 25 3 -24z" />
        <path
            d="M1624 1655 c-8 -33 -7 -45 1 -45 6 0 16 20 22 45 7 33 7 45 -1 45 -6
0 -16 -20 -22 -45z" />
        <path
            d="M1693 1673 c0 -10 -4 -33 -8 -50 -5 -20 -4 -33 3 -33 9 0 22 45 22
81 0 24 -15 25 -17 2z" />
        <path
            d="M1738 1671 c9 -5 13 -23 11 -49 -4 -55 7 -64 16 -12 7 41 -5 70 -29
70 -7 0 -6 -4 2 -9z" />
        <path d="M1006 1625 c6 -52 10 -62 20 -53 3 4 -1 28 -10 55 l-15 48 5 -50z" />
        <path
            d="M1852 1580 c-15 -50 -15 -70 0 -70 6 0 9 3 5 6 -3 3 0 23 8 43 7 21
10 43 6 49 -3 6 -12 -7 -19 -28z" />
        <path
            d="M932 1587 c-8 -9 -3 -12 21 -12 25 0 32 -4 32 -20 0 -26 -35 -32 -52
-9 -12 17 -13 17 -13 0 0 -16 -2 -17 -17 -5 -16 13 -17 12 -4 -4 8 -9 16 -15
19 -13 2 3 12 1 22 -4 21 -11 60 13 60 39 0 36 -46 55 -68 28z" />
        <path
            d="M1395 1577 c-119 -40 -211 -112 -247 -195 -27 -59 -29 -163 -5 -209
36 -67 118 -105 186 -84 40 11 91 61 91 87 0 17 -1 17 -36 -1 -16 -8 -39 -15
-52 -15 -31 0 -79 26 -92 49 -30 57 10 150 82 191 39 23 54 25 158 25 134 0
180 -16 254 -91 127 -126 123 -302 -10 -444 -86 -92 -190 -127 -321 -107 l-52
8 -30 -59 c-17 -33 -27 -62 -24 -66 13 -13 249 -6 308 9 154 39 281 139 345
269 30 60 35 81 38 162 4 74 0 107 -17 162 -39 131 -145 238 -289 293 -71 27
-227 36 -287 16z m146 -18 c217 -9 392 -169 419 -383 22 -176 -81 -353 -254
-435 -78 -38 -138 -51 -247 -56 -104 -5 -133 7 -108 46 15 21 23 23 120 24 79
0 111 5 134 18 17 9 33 17 37 17 8 0 24 12 84 63 74 63 124 178 124 288 0 62
-37 148 -87 205 -71 79 -188 120 -314 111 -100 -8 -151 -29 -198 -83 -80 -92
-59 -200 47 -235 39 -13 35 -24 -10 -27 -37 -2 -76 19 -109 61 -29 38 -28 142
2 203 25 54 97 120 157 147 50 22 133 46 143 41 3 -2 30 -4 60 -5z" />
        <path
            d="M1775 1580 c-9 -14 13 -40 34 -40 13 1 13 3 -3 12 -19 11 -19 11 -1
24 18 13 18 14 -2 14 -12 0 -25 -5 -28 -10z" />
        <path
            d="M1890 1540 c-11 -11 -20 -26 -20 -33 0 -23 37 -49 62 -44 21 4 21 4
-4 6 -15 0 -30 6 -33 12 -12 18 4 55 27 67 18 8 19 11 6 11 -10 1 -27 -8 -38
-19z" />
        <path
            d="M988 1498 c-69 -86 -89 -116 -79 -122 11 -7 159 -36 184 -36 28 0 19
19 -18 37 -19 9 -35 20 -35 24 0 17 21 19 49 4 35 -18 41 -18 41 -5 0 5 -14
17 -31 26 -23 12 -28 19 -20 27 9 9 16 8 31 -1 23 -14 50 -16 50 -3 0 5 -16
19 -35 30 -19 12 -50 30 -69 41 l-34 21 -34 -43z m67 -18 c4 -6 -4 -27 -17
-48 -12 -20 -22 -41 -20 -45 1 -5 -10 -7 -25 -5 -38 4 -39 26 -2 71 30 37 52
46 64 27z" />
        <path
            d="M836 1502 c-3 -5 19 -13 49 -19 58 -10 78 1 23 12 -18 4 -40 9 -50
11 -9 3 -19 1 -22 -4z" />
        <path
            d="M1970 1451 c-23 -19 -31 -33 -27 -44 9 -23 26 -22 20 2 -3 12 5 24
27 38 18 11 28 23 23 26 -5 4 -25 -6 -43 -22z" />
        <path d="M2000 1390 c-19 -16 -30 -29 -25 -29 17 0 85 45 78 52 -11 11 -17 8
-53 -23z" />
        <path
            d="M1447 1403 c-2 -4 4 -132 14 -283 10 -151 18 -285 18 -297 1 -19 7
-23 32 -23 l31 0 -7 133 c-4 72 -12 209 -19 302 l-11 170 -27 3 c-14 2 -28 0
-31 -5z" />
        <path
            d="M1536 1363 c2 -27 11 -158 19 -292 9 -135 17 -247 20 -249 10 -10 96
51 138 98 90 99 109 212 56 318 -43 86 -116 143 -211 166 -27 6 -27 6 -22 -41z
m132 -42 c79 -62 119 -164 97 -245 -11 -41 -44 -108 -67 -136 -15 -19 -82 -70
-91 -70 -13 0 -25 115 -33 333 l-7 157 26 0 c14 0 47 -17 75 -39z" />
        <path
            d="M1340 1378 c-50 -26 -81 -71 -82 -119 -2 -59 71 -90 127 -53 13 9 30
12 36 8 9 -5 10 3 6 32 -4 21 -7 65 -7 97 0 67 -9 71 -80 35z m22 -50 c2 -17
9 -23 26 -22 26 1 29 -11 6 -20 -12 -5 -14 -13 -9 -34 5 -22 4 -25 -6 -14 -18
17 -48 15 -55 -3 -4 -8 -10 -15 -15 -15 -5 0 -3 12 3 26 11 23 9 28 -12 45
l-25 18 30 -2 c24 -2 31 2 33 21 2 12 7 22 12 22 5 0 10 -10 12 -22z" />
        <path d="M2050 1353 c-61 -27 -66 -31 -58 -38 7 -8 128 46 128 56 0 13 -8 11
-70 -18z" />
        <path
            d="M861 1300 c-26 -61 -43 -147 -39 -198 l3 -37 45 2 c25 1 82 7 128 14
93 13 106 31 26 39 -41 4 -49 8 -49 25 0 18 6 20 48 17 64 -5 62 15 -3 24 -41
5 -50 10 -50 26 0 18 6 19 50 16 64 -4 67 15 3 22 -34 4 -48 9 -48 20 0 11 14
16 58 18 90 5 72 25 -40 45 -54 10 -101 17 -104 17 -4 0 -16 -23 -28 -50z m83
14 c12 -5 15 -15 10 -43 -10 -64 -11 -135 -2 -153 9 -19 9 -19 -62 -22 l-35
-1 -1 54 c-1 56 18 123 44 154 16 19 22 20 46 11z" />
        <path
            d="M2007 1286 c-3 -8 1 -22 8 -33 13 -17 14 -17 8 5 -6 24 6 29 26 10
11 -11 11 -9 2 10 -13 25 -36 29 -44 8z" />
        <path
            d="M2099 1265 c-2 -5 -21 -18 -41 -27 -21 -10 -38 -22 -38 -27 0 -10 67
14 84 29 4 5 6 14 4 22 -3 7 -7 9 -9 3z" />
        <path
            d="M1086 1212 c-2 -4 -1 -14 4 -22 5 -8 7 -25 4 -36 -3 -12 -1 -25 5
-28 6 -4 11 -24 11 -45 0 -22 6 -44 15 -51 8 -7 15 -18 15 -26 0 -7 16 -29 35
-48 19 -20 35 -39 35 -45 0 -20 119 -85 175 -95 20 -4 43 -10 51 -13 13 -5 14
15 8 158 -4 90 -8 165 -9 167 -1 2 -16 -10 -32 -27 -66 -65 -173 -61 -245 11
-21 21 -41 52 -45 69 -6 31 -18 45 -27 31z m182 -180 c24 -2 64 1 88 8 25 7
47 10 50 7 3 -3 8 -48 11 -101 5 -84 4 -96 -11 -102 -48 -18 -208 103 -241
182 -8 20 -15 38 -15 40 0 3 17 -3 38 -13 20 -9 56 -18 80 -21z" />
        <path
            d="M2026 1173 c-4 -10 0 -23 11 -32 15 -15 16 -15 4 1 -18 24 17 42 55
28 24 -9 25 -9 14 5 -17 21 -76 20 -84 -2z" />
        <path
            d="M2055 1112 c-11 -2 -24 -9 -30 -14 -7 -8 -4 -9 8 -4 10 3 46 6 79 6
34 0 58 3 55 6 -8 8 -83 12 -112 6z" />
        <path
            d="M2026 1073 c-9 -9 -7 -51 3 -57 4 -3 6 7 3 22 -5 24 -4 26 11 13 15
-11 17 -11 17 2 0 16 -24 30 -34 20z" />
        <path
            d="M950 1051 c-113 -16 -115 -17 -112 -41 4 -43 59 -143 100 -183 l39
-38 92 77 c65 53 90 79 82 87 -7 7 -22 2 -50 -16 -47 -31 -57 -33 -65 -11 -4
10 4 21 25 32 52 29 62 39 55 51 -5 8 -20 4 -50 -14 -50 -30 -66 -31 -66 -7 0
10 18 27 45 41 25 13 45 28 45 32 0 10 7 11 -140 -10z m30 -46 c0 -13 13 -47
30 -74 l29 -51 -27 -25 c-15 -14 -30 -25 -33 -25 -14 0 -73 76 -91 118 -26 59
-12 76 70 81 17 1 22 -4 22 -24z" />
        <path
            d="M2060 1003 c-60 -6 -70 -18 -16 -21 29 -1 48 4 56 13 7 8 11 14 9 13
-2 -1 -24 -3 -49 -5z" />
        <path
            d="M1082 848 c-61 -52 -80 -74 -72 -83 22 -26 242 -107 255 -93 5 6 65
127 65 133 0 16 -32 1 -42 -20 -12 -27 -38 -34 -38 -11 0 7 7 19 15 26 8 7 15
19 15 26 0 23 -26 16 -40 -11 -13 -25 -34 -33 -44 -16 -3 4 3 16 14 26 20 18
27 45 13 45 -5 0 -20 -14 -35 -32 -22 -28 -28 -30 -33 -16 -4 10 2 29 15 46
20 27 21 53 2 51 -4 0 -44 -32 -90 -71z m60 -35 c16 -21 52 -43 71 -43 8 0 22
-9 32 -20 14 -16 15 -23 6 -34 -11 -13 -19 -13 -64 1 -69 20 -127 50 -127 66
0 11 46 46 62 47 4 0 13 -8 20 -17z" />
        <path
            d="M1496 632 c-2 -4 0 -70 5 -145 11 -155 4 -197 -38 -248 -29 -33 -94
-68 -129 -69 -43 0 -126 32 -161 63 -41 36 -63 81 -63 129 l0 33 23 -28 c59
-74 188 -39 203 55 14 86 -70 161 -155 138 -81 -22 -130 -92 -131 -185 0 -57
33 -137 71 -172 32 -29 123 -70 176 -78 92 -15 199 42 246 129 20 37 22 55 21
168 -1 70 -5 148 -8 173 -6 39 -10 45 -31 45 -13 0 -26 -4 -29 -8z m-261 -102
c4 -6 10 -8 14 -5 18 10 56 -46 56 -84 0 -74 -69 -104 -144 -62 -37 20 -47 22
-64 12 -19 -12 -20 -11 -14 22 3 20 16 50 29 68 33 45 107 75 123 49z" />
    </g>
</svg>